<svg width="24" height="25" viewBox="0 0 24 25" fill="none" xmlns="http://www.w3.org/2000/svg">
<path d="M1.47826 14.2565C0.66184 14.2565 0 13.5947 0 12.7782C0 11.9618 0.66184 11.3 1.47826 11.3H22.5217C23.3382 11.3 24 11.9618 24 12.7782C24 13.5947 23.3382 14.2565 22.5217 14.2565H1.47826Z" fill="#111827"/>
<path d="M13.4565 23.3217C13.4565 24.1381 12.7947 24.8 11.9783 24.8C11.1618 24.8 10.5 24.1381 10.5 23.3217L10.5 2.27825C10.5 1.46183 11.1618 0.799988 11.9783 0.799988C12.7947 0.799988 13.4565 1.46183 13.4565 2.27825L13.4565 23.3217Z" fill="#111827"/>
</svg>
