<svg width="24" height="25" viewBox="0 0 24 25" fill="none" xmlns="http://www.w3.org/2000/svg">
<g clip-path="url(#clip0_15_562)">
<path d="M1.14286 0.200012H0V1.34287H1.14286V0.200012Z" fill="#111827"/>
<path d="M2.28571 0.200012H1.14286V1.34287H2.28571V0.200012Z" fill="#111827"/>
<path d="M3.42857 0.200012H2.28571V1.34287H3.42857V0.200012Z" fill="#111827"/>
<path d="M4.57143 0.200012H3.42857V1.34287H4.57143V0.200012Z" fill="#111827"/>
<path d="M5.71429 0.200012H4.57143V1.34287H5.71429V0.200012Z" fill="#111827"/>
<path d="M6.85714 0.200012H5.71429V1.34287H6.85714V0.200012Z" fill="#111827"/>
<path d="M8 0.200012H6.85714V1.34287H8V0.200012Z" fill="#111827"/>
<path d="M10.2857 0.200012H9.14286V1.34287H10.2857V0.200012Z" fill="#111827"/>
<path d="M12.5714 0.200012H11.4286V1.34287H12.5714V0.200012Z" fill="#111827"/>
<path d="M13.7143 0.200012H12.5714V1.34287H13.7143V0.200012Z" fill="#111827"/>
<path d="M17.1429 0.200012H16V1.34287H17.1429V0.200012Z" fill="#111827"/>
<path d="M18.2857 0.200012H17.1429V1.34287H18.2857V0.200012Z" fill="#111827"/>
<path d="M19.4286 0.200012H18.2857V1.34287H19.4286V0.200012Z" fill="#111827"/>
<path d="M20.5714 0.200012H19.4286V1.34287H20.5714V0.200012Z" fill="#111827"/>
<path d="M21.7143 0.200012H20.5714V1.34287H21.7143V0.200012Z" fill="#111827"/>
<path d="M22.8571 0.200012H21.7143V1.34287H22.8571V0.200012Z" fill="#111827"/>
<path d="M24 0.200012H22.8571V1.34287H24V0.200012Z" fill="#111827"/>
<path d="M1.14286 1.34287H0V2.48573H1.14286V1.34287Z" fill="#111827"/>
<path d="M8 1.34287H6.85714V2.48573H8V1.34287Z" fill="#111827"/>
<path d="M11.4286 1.34287H10.2857V2.48573H11.4286L11.4286 1.34287Z" fill="#111827"/>
<path d="M12.5714 1.34287H11.4286L11.4286 2.48573H12.5714V1.34287Z" fill="#111827"/>
<path d="M13.7143 1.34287H12.5714V2.48573H13.7143V1.34287Z" fill="#111827"/>
<path d="M14.8571 1.34287H13.7143V2.48573H14.8571V1.34287Z" fill="#111827"/>
<path d="M17.1429 1.34287H16V2.48573H17.1429V1.34287Z" fill="#111827"/>
<path d="M24 1.34287H22.8571V2.48573H24V1.34287Z" fill="#111827"/>
<path d="M1.14286 2.48573H0V3.62858H1.14286V2.48573Z" fill="#111827"/>
<path d="M3.42857 2.48573H2.28571V3.62858H3.42857V2.48573Z" fill="#111827"/>
<path d="M4.57143 2.48573H3.42857V3.62858H4.57143V2.48573Z" fill="#111827"/>
<path d="M5.71429 2.48573H4.57143V3.62858H5.71429V2.48573Z" fill="#111827"/>
<path d="M8 2.48573H6.85714V3.62858H8V2.48573Z" fill="#111827"/>
<path d="M12.5714 2.48573H11.4286L11.4286 3.62858H12.5714V2.48573Z" fill="#111827"/>
<path d="M13.7143 2.48573H12.5714V3.62858H13.7143V2.48573Z" fill="#111827"/>
<path d="M14.8571 2.48573H13.7143V3.62858H14.8571V2.48573Z" fill="#111827"/>
<path d="M17.1429 2.48573H16V3.62858H17.1429V2.48573Z" fill="#111827"/>
<path d="M19.4286 2.48573H18.2857V3.62858H19.4286V2.48573Z" fill="#111827"/>
<path d="M20.5714 2.48573H19.4286V3.62858H20.5714V2.48573Z" fill="#111827"/>
<path d="M21.7143 2.48573H20.5714V3.62858H21.7143V2.48573Z" fill="#111827"/>
<path d="M24 2.48573H22.8571V3.62858H24V2.48573Z" fill="#111827"/>
<path d="M1.14286 3.62858H0V4.77144H1.14286V3.62858Z" fill="#111827"/>
<path d="M3.42857 3.62858H2.28571V4.77144H3.42857V3.62858Z" fill="#111827"/>
<path d="M4.57143 3.62858H3.42857V4.77144H4.57143V3.62858Z" fill="#111827"/>
<path d="M5.71429 3.62858H4.57143V4.77144H5.71429V3.62858Z" fill="#111827"/>
<path d="M8 3.62858H6.85714V4.77144H8V3.62858Z" fill="#111827"/>
<path d="M10.2857 3.62858H9.14286V4.77144H10.2857V3.62858Z" fill="#111827"/>
<path d="M11.4286 3.62858H10.2857V4.77144H11.4286L11.4286 3.62858Z" fill="#111827"/>
<path d="M12.5714 3.62858H11.4286L11.4286 4.77144H12.5714V3.62858Z" fill="#111827"/>
<path d="M13.7143 3.62858H12.5714V4.77144H13.7143V3.62858Z" fill="#111827"/>
<path d="M14.8571 3.62858H13.7143V4.77144H14.8571V3.62858Z" fill="#111827"/>
<path d="M17.1429 3.62858H16V4.77144H17.1429V3.62858Z" fill="#111827"/>
<path d="M19.4286 3.62858H18.2857V4.77144H19.4286V3.62858Z" fill="#111827"/>
<path d="M20.5714 3.62858H19.4286V4.77144H20.5714V3.62858Z" fill="#111827"/>
<path d="M21.7143 3.62858H20.5714V4.77144H21.7143V3.62858Z" fill="#111827"/>
<path d="M24 3.62858H22.8571V4.77144H24V3.62858Z" fill="#111827"/>
<path d="M1.14286 4.77144H0V5.9143H1.14286V4.77144Z" fill="#111827"/>
<path d="M3.42857 4.77144H2.28571V5.9143H3.42857V4.77144Z" fill="#111827"/>
<path d="M4.57143 4.77144H3.42857V5.9143H4.57143V4.77144Z" fill="#111827"/>
<path d="M5.71429 4.77144H4.57143V5.9143H5.71429V4.77144Z" fill="#111827"/>
<path d="M8 4.77144H6.85714V5.9143H8V4.77144Z" fill="#111827"/>
<path d="M11.4286 4.77144H10.2857V5.9143H11.4286V4.77144Z" fill="#111827"/>
<path d="M14.8571 4.77144H13.7143V5.9143H14.8571V4.77144Z" fill="#111827"/>
<path d="M17.1429 4.77144H16V5.9143H17.1429V4.77144Z" fill="#111827"/>
<path d="M19.4286 4.77144H18.2857V5.9143H19.4286V4.77144Z" fill="#111827"/>
<path d="M20.5714 4.77144H19.4286V5.9143H20.5714V4.77144Z" fill="#111827"/>
<path d="M21.7143 4.77144H20.5714V5.9143H21.7143V4.77144Z" fill="#111827"/>
<path d="M24 4.77144H22.8571V5.9143H24V4.77144Z" fill="#111827"/>
<path d="M1.14286 5.9143H0V7.05715H1.14286V5.9143Z" fill="#111827"/>
<path d="M8 5.9143H6.85714V7.05715H8V5.9143Z" fill="#111827"/>
<path d="M10.2857 5.9143H9.14286V7.05715H10.2857V5.9143Z" fill="#111827"/>
<path d="M11.4286 5.9143H10.2857V7.05715H11.4286V5.9143Z" fill="#111827"/>
<path d="M13.7143 5.9143H12.5714V7.05715H13.7143V5.9143Z" fill="#111827"/>
<path d="M14.8571 5.9143H13.7143V7.05715H14.8571V5.9143Z" fill="#111827"/>
<path d="M17.1429 5.9143H16V7.05715H17.1429V5.9143Z" fill="#111827"/>
<path d="M24 5.9143H22.8571V7.05715H24V5.9143Z" fill="#111827"/>
<path d="M1.14286 7.05715H0V8.20001H1.14286V7.05715Z" fill="#111827"/>
<path d="M2.28571 7.05715H1.14286V8.20001H2.28571V7.05715Z" fill="#111827"/>
<path d="M3.42857 7.05715H2.28571V8.20001H3.42857V7.05715Z" fill="#111827"/>
<path d="M4.57143 7.05715H3.42857V8.20001H4.57143V7.05715Z" fill="#111827"/>
<path d="M5.71429 7.05715H4.57143V8.20001H5.71429V7.05715Z" fill="#111827"/>
<path d="M6.85714 7.05715H5.71429V8.20001H6.85714V7.05715Z" fill="#111827"/>
<path d="M8 7.05715H6.85714V8.20001H8V7.05715Z" fill="#111827"/>
<path d="M10.2857 7.05715H9.14286V8.20001H10.2857V7.05715Z" fill="#111827"/>
<path d="M12.5714 7.05715H11.4286L11.4286 8.20001H12.5714L12.5714 7.05715Z" fill="#111827"/>
<path d="M14.8571 7.05715H13.7143V8.20001H14.8571V7.05715Z" fill="#111827"/>
<path d="M17.1429 7.05715H16V8.20001H17.1429V7.05715Z" fill="#111827"/>
<path d="M18.2857 7.05715H17.1429V8.20001H18.2857V7.05715Z" fill="#111827"/>
<path d="M19.4286 7.05715H18.2857V8.20001H19.4286V7.05715Z" fill="#111827"/>
<path d="M20.5714 7.05715H19.4286V8.20001H20.5714V7.05715Z" fill="#111827"/>
<path d="M21.7143 7.05715H20.5714V8.20001H21.7143V7.05715Z" fill="#111827"/>
<path d="M22.8571 7.05715H21.7143V8.20001H22.8571V7.05715Z" fill="#111827"/>
<path d="M24 7.05715H22.8571V8.20001H24V7.05715Z" fill="#111827"/>
<path d="M14.8571 8.20001H13.7143V9.34287H14.8571V8.20001Z" fill="#111827"/>
<path d="M6.85714 9.34287H5.71429V10.4857H6.85714V9.34287Z" fill="#111827"/>
<path d="M8 9.34287H6.85714V10.4857H8V9.34287Z" fill="#111827"/>
<path d="M10.2857 9.34287H9.14286V10.4857H10.2857V9.34287Z" fill="#111827"/>
<path d="M11.4286 9.34287H10.2857V10.4857H11.4286V9.34287Z" fill="#111827"/>
<path d="M16 9.34287L14.8571 9.34287V10.4857H16V9.34287Z" fill="#111827"/>
<path d="M18.2857 9.34287H17.1429V10.4857H18.2857V9.34287Z" fill="#111827"/>
<path d="M20.5714 9.34287H19.4286V10.4857H20.5714V9.34287Z" fill="#111827"/>
<path d="M24 9.34287H22.8571V10.4857H24V9.34287Z" fill="#111827"/>
<path d="M1.14286 10.4857H0V11.6286H1.14286V10.4857Z" fill="#111827"/>
<path d="M2.28571 10.4857H1.14286V11.6286H2.28571V10.4857Z" fill="#111827"/>
<path d="M3.42857 10.4857H2.28571V11.6286H3.42857V10.4857Z" fill="#111827"/>
<path d="M5.71429 10.4857H4.57143V11.6286H5.71429V10.4857Z" fill="#111827"/>
<path d="M9.14286 10.4857H8V11.6286H9.14286L9.14286 10.4857Z" fill="#111827"/>
<path d="M10.2857 10.4857H9.14286L9.14286 11.6286H10.2857V10.4857Z" fill="#111827"/>
<path d="M12.5714 10.4857H11.4286L11.4286 11.6286H12.5714V10.4857Z" fill="#111827"/>
<path d="M17.1429 10.4857H16V11.6286H17.1429V10.4857Z" fill="#111827"/>
<path d="M19.4286 10.4857H18.2857V11.6286H19.4286V10.4857Z" fill="#111827"/>
<path d="M20.5714 10.4857H19.4286V11.6286H20.5714V10.4857Z" fill="#111827"/>
<path d="M21.7143 10.4857H20.5714V11.6286H21.7143V10.4857Z" fill="#111827"/>
<path d="M24 10.4857H22.8571V11.6286H24V10.4857Z" fill="#111827"/>
<path d="M3.42857 11.6286H2.28571V12.7714H3.42857V11.6286Z" fill="#111827"/>
<path d="M4.57143 11.6286H3.42857V12.7714H4.57143V11.6286Z" fill="#111827"/>
<path d="M5.71429 11.6286H4.57143V12.7714H5.71429V11.6286Z" fill="#111827"/>
<path d="M6.85714 11.6286L5.71429 11.6286V12.7714H6.85714V11.6286Z" fill="#111827"/>
<path d="M8 11.6286L6.85714 11.6286V12.7714H8V11.6286Z" fill="#111827"/>
<path d="M11.4286 11.6286H10.2857V12.7714H11.4286L11.4286 11.6286Z" fill="#111827"/>
<path d="M14.8571 11.6286H13.7143V12.7714H14.8571V11.6286Z" fill="#111827"/>
<path d="M16 11.6286L14.8571 11.6286V12.7714H16V11.6286Z" fill="#111827"/>
<path d="M17.1429 11.6286H16V12.7714H17.1429V11.6286Z" fill="#111827"/>
<path d="M19.4286 11.6286H18.2857V12.7714H19.4286V11.6286Z" fill="#111827"/>
<path d="M20.5714 11.6286H19.4286V12.7714H20.5714V11.6286Z" fill="#111827"/>
<path d="M3.42857 12.7714H2.28571V13.9143H3.42857V12.7714Z" fill="#111827"/>
<path d="M5.71429 12.7714H4.57143V13.9143H5.71429V12.7714Z" fill="#111827"/>
<path d="M10.2857 12.7714L9.14286 12.7714V13.9143H10.2857V12.7714Z" fill="#111827"/>
<path d="M11.4286 12.7714H10.2857V13.9143H11.4286V12.7714Z" fill="#111827"/>
<path d="M12.5714 12.7714L11.4286 12.7714V13.9143H12.5714V12.7714Z" fill="#111827"/>
<path d="M14.8571 12.7714H13.7143V13.9143H14.8571V12.7714Z" fill="#111827"/>
<path d="M17.1429 12.7714H16V13.9143H17.1429V12.7714Z" fill="#111827"/>
<path d="M21.7143 12.7714L20.5714 12.7714V13.9143H21.7143V12.7714Z" fill="#111827"/>
<path d="M22.8571 12.7714H21.7143V13.9143H22.8571V12.7714Z" fill="#111827"/>
<path d="M3.42857 13.9143H2.28571V15.0572H3.42857V13.9143Z" fill="#111827"/>
<path d="M4.57143 13.9143H3.42857V15.0572H4.57143V13.9143Z" fill="#111827"/>
<path d="M5.71429 13.9143H4.57143V15.0572H5.71429V13.9143Z" fill="#111827"/>
<path d="M8 13.9143H6.85714V15.0572H8V13.9143Z" fill="#111827"/>
<path d="M10.2857 13.9143H9.14286V15.0572H10.2857V13.9143Z" fill="#111827"/>
<path d="M13.7143 13.9143H12.5714L12.5714 15.0572H13.7143V13.9143Z" fill="#111827"/>
<path d="M17.1429 13.9143H16V15.0572H17.1429V13.9143Z" fill="#111827"/>
<path d="M19.4286 13.9143H18.2857V15.0572H19.4286V13.9143Z" fill="#111827"/>
<path d="M22.8571 13.9143H21.7143V15.0572H22.8571V13.9143Z" fill="#111827"/>
<path d="M10.2857 15.0572H9.14286V16.2H10.2857V15.0572Z" fill="#111827"/>
<path d="M11.4286 15.0572H10.2857V16.2H11.4286V15.0572Z" fill="#111827"/>
<path d="M13.7143 15.0572H12.5714V16.2H13.7143V15.0572Z" fill="#111827"/>
<path d="M16 15.0572H14.8571V16.2H16V15.0572Z" fill="#111827"/>
<path d="M19.4286 15.0572H18.2857V16.2H19.4286V15.0572Z" fill="#111827"/>
<path d="M20.5714 15.0572H19.4286V16.2H20.5714V15.0572Z" fill="#111827"/>
<path d="M21.7143 15.0572H20.5714V16.2H21.7143V15.0572Z" fill="#111827"/>
<path d="M24 15.0572H22.8571V16.2H24V15.0572Z" fill="#111827"/>
<path d="M1.14286 16.2H0V17.3429H1.14286V16.2Z" fill="#111827"/>
<path d="M2.28571 16.2H1.14286V17.3429H2.28571V16.2Z" fill="#111827"/>
<path d="M3.42857 16.2H2.28571V17.3429H3.42857V16.2Z" fill="#111827"/>
<path d="M4.57143 16.2H3.42857V17.3429H4.57143V16.2Z" fill="#111827"/>
<path d="M5.71429 16.2H4.57143V17.3429H5.71429V16.2Z" fill="#111827"/>
<path d="M6.85714 16.2H5.71429V17.3429H6.85714V16.2Z" fill="#111827"/>
<path d="M8 16.2H6.85714V17.3429H8V16.2Z" fill="#111827"/>
<path d="M11.4286 16.2H10.2857V17.3429H11.4286V16.2Z" fill="#111827"/>
<path d="M13.7143 16.2H12.5714V17.3429H13.7143V16.2Z" fill="#111827"/>
<path d="M14.8571 16.2H13.7143V17.3429H14.8571V16.2Z" fill="#111827"/>
<path d="M16 16.2H14.8571V17.3429H16V16.2Z" fill="#111827"/>
<path d="M17.1429 16.2H16V17.3429H17.1429V16.2Z" fill="#111827"/>
<path d="M18.2857 16.2H17.1429V17.3429H18.2857V16.2Z" fill="#111827"/>
<path d="M19.4286 16.2H18.2857V17.3429H19.4286V16.2Z" fill="#111827"/>
<path d="M20.5714 16.2H19.4286V17.3429H20.5714V16.2Z" fill="#111827"/>
<path d="M21.7143 16.2H20.5714V17.3429H21.7143V16.2Z" fill="#111827"/>
<path d="M1.14286 17.3429H0V18.4857H1.14286V17.3429Z" fill="#111827"/>
<path d="M8 17.3429H6.85714V18.4857H8V17.3429Z" fill="#111827"/>
<path d="M10.2857 17.3429H9.14286V18.4857H10.2857V17.3429Z" fill="#111827"/>
<path d="M11.4286 17.3429H10.2857V18.4857H11.4286V17.3429Z" fill="#111827"/>
<path d="M12.5714 17.3429H11.4286V18.4857H12.5714L12.5714 17.3429Z" fill="#111827"/>
<path d="M16 17.3429H14.8571V18.4857H16V17.3429Z" fill="#111827"/>
<path d="M17.1429 17.3429H16V18.4857H17.1429V17.3429Z" fill="#111827"/>
<path d="M19.4286 17.3429H18.2857V18.4857H19.4286V17.3429Z" fill="#111827"/>
<path d="M20.5714 17.3429H19.4286V18.4857H20.5714V17.3429Z" fill="#111827"/>
<path d="M21.7143 17.3429H20.5714V18.4857H21.7143V17.3429Z" fill="#111827"/>
<path d="M22.8571 17.3429H21.7143V18.4857H22.8571V17.3429Z" fill="#111827"/>
<path d="M24 17.3429H22.8571V18.4857H24V17.3429Z" fill="#111827"/>
<path d="M1.14286 18.4857H0V19.6286H1.14286V18.4857Z" fill="#111827"/>
<path d="M3.42857 18.4857H2.28571V19.6286H3.42857V18.4857Z" fill="#111827"/>
<path d="M4.57143 18.4857H3.42857V19.6286H4.57143V18.4857Z" fill="#111827"/>
<path d="M5.71429 18.4857H4.57143V19.6286H5.71429V18.4857Z" fill="#111827"/>
<path d="M8 18.4857H6.85714V19.6286H8V18.4857Z" fill="#111827"/>
<path d="M11.4286 18.4857H10.2857V19.6286H11.4286V18.4857Z" fill="#111827"/>
<path d="M13.7143 18.4857H12.5714L12.5714 19.6286H13.7143V18.4857Z" fill="#111827"/>
<path d="M14.8571 18.4857H13.7143V19.6286H14.8571V18.4857Z" fill="#111827"/>
<path d="M17.1429 18.4857H16V19.6286H17.1429V18.4857Z" fill="#111827"/>
<path d="M18.2857 18.4857H17.1429V19.6286H18.2857V18.4857Z" fill="#111827"/>
<path d="M19.4286 18.4857H18.2857V19.6286H19.4286V18.4857Z" fill="#111827"/>
<path d="M20.5714 18.4857H19.4286V19.6286H20.5714V18.4857Z" fill="#111827"/>
<path d="M21.7143 18.4857H20.5714V19.6286H21.7143V18.4857Z" fill="#111827"/>
<path d="M22.8571 18.4857H21.7143V19.6286H22.8571V18.4857Z" fill="#111827"/>
<path d="M1.14286 19.6286H0V20.7714H1.14286V19.6286Z" fill="#111827"/>
<path d="M3.42857 19.6286H2.28571V20.7714H3.42857V19.6286Z" fill="#111827"/>
<path d="M4.57143 19.6286H3.42857V20.7714H4.57143V19.6286Z" fill="#111827"/>
<path d="M5.71429 19.6286H4.57143V20.7714H5.71429V19.6286Z" fill="#111827"/>
<path d="M8 19.6286H6.85714V20.7714H8V19.6286Z" fill="#111827"/>
<path d="M11.4286 19.6286H10.2857V20.7714H11.4286V19.6286Z" fill="#111827"/>
<path d="M12.5714 19.6286H11.4286V20.7714H12.5714L12.5714 19.6286Z" fill="#111827"/>
<path d="M13.7143 19.6286H12.5714L12.5714 20.7714H13.7143V19.6286Z" fill="#111827"/>
<path d="M20.5714 19.6286H19.4286V20.7714H20.5714V19.6286Z" fill="#111827"/>
<path d="M21.7143 19.6286H20.5714V20.7714H21.7143V19.6286Z" fill="#111827"/>
<path d="M24 19.6286H22.8571V20.7714H24V19.6286Z" fill="#111827"/>
<path d="M1.14286 20.7714H0V21.9143H1.14286V20.7714Z" fill="#111827"/>
<path d="M3.42857 20.7714H2.28571V21.9143H3.42857V20.7714Z" fill="#111827"/>
<path d="M4.57143 20.7714H3.42857V21.9143H4.57143V20.7714Z" fill="#111827"/>
<path d="M5.71429 20.7714H4.57143V21.9143H5.71429V20.7714Z" fill="#111827"/>
<path d="M8 20.7714H6.85714V21.9143H8V20.7714Z" fill="#111827"/>
<path d="M11.4286 20.7714H10.2857V21.9143H11.4286V20.7714Z" fill="#111827"/>
<path d="M12.5714 20.7714H11.4286V21.9143H12.5714V20.7714Z" fill="#111827"/>
<path d="M16 20.7714H14.8571V21.9143H16V20.7714Z" fill="#111827"/>
<path d="M17.1429 20.7714H16V21.9143H17.1429V20.7714Z" fill="#111827"/>
<path d="M21.7143 20.7714H20.5714V21.9143H21.7143V20.7714Z" fill="#111827"/>
<path d="M24 20.7714H22.8571V21.9143H24V20.7714Z" fill="#111827"/>
<path d="M1.14286 21.9143H0V23.0572H1.14286V21.9143Z" fill="#111827"/>
<path d="M8 21.9143H6.85714V23.0572H8V21.9143Z" fill="#111827"/>
<path d="M11.4286 21.9143H10.2857V23.0572H11.4286V21.9143Z" fill="#111827"/>
<path d="M13.7143 21.9143H12.5714L12.5714 23.0572H13.7143V21.9143Z" fill="#111827"/>
<path d="M14.8571 21.9143H13.7143V23.0572H14.8571V21.9143Z" fill="#111827"/>
<path d="M16 21.9143H14.8571V23.0572H16V21.9143Z" fill="#111827"/>
<path d="M17.1429 21.9143H16V23.0572H17.1429V21.9143Z" fill="#111827"/>
<path d="M18.2857 21.9143H17.1429V23.0572H18.2857V21.9143Z" fill="#111827"/>
<path d="M19.4286 21.9143H18.2857V23.0572H19.4286V21.9143Z" fill="#111827"/>
<path d="M20.5714 21.9143H19.4286V23.0572H20.5714V21.9143Z" fill="#111827"/>
<path d="M24 21.9143H22.8571V23.0572H24V21.9143Z" fill="#111827"/>
<path d="M1.14286 23.0572H0V24.2H1.14286V23.0572Z" fill="#111827"/>
<path d="M2.28571 23.0572H1.14286V24.2H2.28571V23.0572Z" fill="#111827"/>
<path d="M3.42857 23.0572H2.28571V24.2H3.42857V23.0572Z" fill="#111827"/>
<path d="M4.57143 23.0572H3.42857V24.2H4.57143V23.0572Z" fill="#111827"/>
<path d="M5.71429 23.0572H4.57143V24.2H5.71429V23.0572Z" fill="#111827"/>
<path d="M6.85714 23.0572H5.71429V24.2H6.85714V23.0572Z" fill="#111827"/>
<path d="M8 23.0572H6.85714V24.2H8V23.0572Z" fill="#111827"/>
<path d="M11.4286 23.0572H10.2857V24.2H11.4286V23.0572Z" fill="#111827"/>
<path d="M12.5714 23.0572H11.4286V24.2H12.5714L12.5714 23.0572Z" fill="#111827"/>
<path d="M13.7143 23.0572H12.5714L12.5714 24.2H13.7143V23.0572Z" fill="#111827"/>
<path d="M14.8571 23.0572H13.7143V24.2H14.8571V23.0572Z" fill="#111827"/>
<path d="M20.5714 23.0572H19.4286V24.2H20.5714V23.0572Z" fill="#111827"/>
<path d="M21.7143 23.0572H20.5714V24.2H21.7143V23.0572Z" fill="#111827"/>
</g>
<defs>
<clipPath id="clip0_15_562">
<rect width="24" height="24" fill="white" transform="translate(0 0.200012)"/>
</clipPath>
</defs>
</svg>
