<svg width="26" height="12" viewBox="0 0 26 12" fill="none" xmlns="http://www.w3.org/2000/svg">
<path d="M5.02179 11H0.590637V0.431152H4.97784C6.89679 0.431152 8.13458 1.46387 8.13458 3.06787C8.13458 4.20312 7.2923 5.19189 6.20831 5.36768V5.42627C7.64386 5.56543 8.64728 6.59814 8.64728 7.99707C8.64728 9.85742 7.27765 11 5.02179 11ZM2.48029 1.90332V4.88428H4.2088C5.52716 4.88428 6.26691 4.32764 6.26691 3.34619C6.26691 2.42334 5.6297 1.90332 4.50177 1.90332H2.48029ZM2.48029 9.52783H4.58966C5.98126 9.52783 6.72101 8.94922 6.72101 7.86523C6.72101 6.78857 5.95929 6.22461 4.50909 6.22461H2.48029V9.52783Z" fill="#111827"/>
<path d="M11.8648 6.29053V4.86963H13.1392C14.2232 4.86963 14.9629 4.20312 14.9629 3.2583C14.9629 2.33545 14.3184 1.72021 13.1319 1.72021C12.0405 1.72021 11.3081 2.35742 11.2349 3.34619H9.47707C9.57961 1.44922 11.0371 0.21875 13.2197 0.21875C15.2998 0.21875 16.7793 1.354 16.7793 3.00195C16.7793 4.31299 15.9004 5.25781 14.5967 5.48486V5.52881C16.1787 5.646 17.2041 6.61279 17.2041 8.08496C17.2041 9.95264 15.5049 11.2124 13.1978 11.2124C10.876 11.2124 9.36721 9.93799 9.27199 8.05566H11.0738C11.1616 9.02246 11.9527 9.66699 13.2124 9.66699C14.4282 9.66699 15.2852 8.98584 15.2852 8.01172C15.2852 6.94238 14.4795 6.29053 13.1685 6.29053H11.8648Z" fill="#111827"/>
<path d="M18.1731 3.56592C18.1731 1.61768 19.7331 0.21875 21.9231 0.21875C24.0324 0.21875 25.5412 1.50781 25.5412 3.22168C25.5412 4.48145 24.7942 5.43359 23.4099 6.83252L20.7951 9.41797V9.45459H25.7024V11H18.2756V9.72559L22.1648 5.8584C23.3659 4.63525 23.6955 4.09326 23.6955 3.30225C23.6955 2.43066 22.9118 1.73486 21.8645 1.73486C20.7658 1.73486 19.9455 2.51123 19.9455 3.55859V3.58789H18.1731V3.56592Z" fill="#111827"/>
</svg>
