<svg width="20" height="22" viewBox="0 0 20 22" fill="none" xmlns="http://www.w3.org/2000/svg">
<path d="M4.39835 4.44917L4.66115 4.58057C5.17987 4.83994 5.7978 4.80147 6.28035 4.47977C6.72995 4.18004 7 3.67544 7 3.13509V2.95416C7 1.87491 7.87491 1 8.95416 1H10.4877C11.6489 1 12.6399 1.8395 12.8308 2.9849L12.8733 3.23991C12.9541 3.72486 13.2321 4.15473 13.6412 4.42744C14.1722 4.7815 14.8523 4.82384 15.4232 4.53839L15.6017 4.44917C16.6501 3.92496 17.925 4.34992 18.4492 5.39835L19.1021 6.70413C19.6258 7.75164 19.3466 9.02268 18.4321 9.75429L17.8904 10.1877C17.6437 10.3851 17.5 10.684 17.5 11C17.5 11.316 17.6437 11.6149 17.8904 11.8123L18.4321 12.2457C19.3466 12.9773 19.6258 14.2484 19.1021 15.2959L18.4492 16.6017C17.925 17.6501 16.6501 18.075 15.6017 17.5508L15.4232 17.4616C14.8523 17.1762 14.1722 17.2185 13.6412 17.5726C13.2321 17.8453 12.9541 18.2751 12.8733 18.7601L12.8308 19.0151C12.6399 20.1605 11.6489 21 10.4877 21H9.51228C8.35108 21 7.36008 20.1605 7.16918 19.0151L7.12044 18.7227C7.0436 18.2616 6.77934 17.8529 6.39042 17.5936C5.84667 17.2311 5.14272 17.2144 4.58235 17.5506L4.53108 17.5814C3.68549 18.0887 2.58871 17.8145 2.08135 16.9689L1.06274 15.2712C0.454091 14.2568 0.68919 12.9486 1.61296 12.2096L2.10957 11.8123C2.35634 11.6149 2.5 11.316 2.5 11C2.5 10.684 2.35634 10.3851 2.10957 10.1877L1.56786 9.75429C0.65335 9.02268 0.374183 7.75163 0.897936 6.70413L1.55083 5.39835C2.07504 4.34992 3.34992 3.92496 4.39835 4.44917Z" fill="#111827" stroke="#111827"/>
<path d="M4.95851 5.10426L5.19504 5.22252C5.66189 5.45594 6.21802 5.42132 6.65231 5.13179C7.05695 4.86203 7.3 4.40789 7.3 3.92158V3.75875C7.3 2.78742 8.08742 2 9.05875 2H10.439C11.484 2 12.3759 2.75555 12.5477 3.78641L12.586 4.01592C12.6587 4.45237 12.9089 4.83925 13.277 5.08469C13.755 5.40335 14.3671 5.44145 14.8809 5.18455L15.0415 5.10426C15.9851 4.63246 17.1325 5.01493 17.6043 5.95851L18.1919 7.13372C18.6632 8.07647 18.412 9.22041 17.5889 9.87886L17.1014 10.2689C16.8793 10.4466 16.75 10.7156 16.75 11C16.75 11.2844 16.8793 11.5534 17.1014 11.7311L17.5889 12.1211C18.412 12.7796 18.6632 13.9235 18.1919 14.8663L17.6043 16.0415C17.1325 16.9851 15.9851 17.3675 15.0415 16.8957L14.8809 16.8155C14.3671 16.5585 13.755 16.5967 13.277 16.9153C12.9089 17.1607 12.6587 17.5476 12.586 17.9841L12.5477 18.2136C12.3759 19.2444 11.484 20 10.439 20H9.56105C8.51597 20 7.62407 19.2444 7.45227 18.2136L7.4084 17.9504C7.33924 17.5354 7.10141 17.1676 6.75138 16.9343C6.26201 16.608 5.62845 16.5929 5.12412 16.8955L5.07797 16.9232C4.31694 17.3798 3.32984 17.1331 2.87322 16.372L1.95647 14.8441C1.40868 13.9311 1.62027 12.7538 2.45167 12.0887L2.89861 11.7311C3.12071 11.5534 3.25 11.2844 3.25 11C3.25 10.7156 3.12071 10.4466 2.89861 10.2689L2.41108 9.87886C1.58802 9.22041 1.33676 8.07647 1.80814 7.13372L2.39574 5.95851C2.86754 5.01493 4.01493 4.63246 4.95851 5.10426Z" fill="#E0E7FF" stroke="#111827"/>
<path d="M5.93676 9.56383L6.0834 9.55502C6.37286 9.53765 6.63081 9.36651 6.75933 9.10657C6.87908 8.86439 6.86987 8.57837 6.73478 8.3444L6.68955 8.26605C6.41974 7.79872 6.57986 7.20115 7.04719 6.93134L7.71124 6.54795C8.21405 6.25765 8.85304 6.37341 9.22205 6.82166L9.30421 6.92146C9.46045 7.11124 9.68827 7.22789 9.93358 7.24371C10.2521 7.26425 10.5571 7.11256 10.733 6.84624L10.7879 6.763C11.1109 6.2739 11.7691 6.13919 12.2582 6.46212L12.8674 6.86432C13.3561 7.18697 13.5529 7.80714 13.3398 8.35256L13.2136 8.67564C13.1561 8.82282 13.1686 8.98816 13.2476 9.125C13.3267 9.26185 13.4636 9.35536 13.6198 9.37915L13.9627 9.43138C14.5416 9.51955 14.9802 10.0001 15.0153 10.5847L15.0591 11.3133C15.0942 11.8983 14.6484 12.4011 14.0633 12.4362L13.9638 12.4422C13.6452 12.4613 13.3613 12.6496 13.2199 12.9357C13.1109 13.1561 13.098 13.4117 13.1843 13.6419L13.2296 13.7629C13.4333 14.3066 13.2141 14.9179 12.7112 15.2082L12.2889 15.4521C11.786 15.7424 11.1471 15.6266 10.778 15.1783L10.6838 15.0639C10.5353 14.8835 10.3187 14.7726 10.0855 14.7575C9.75938 14.7365 9.45038 14.9052 9.29178 15.1909L9.27728 15.217C9.03796 15.6481 8.49449 15.8036 8.0634 15.5643L7.19791 15.0838C6.68075 14.7967 6.45551 14.1715 6.67076 13.6205L6.78648 13.3244C6.84398 13.1772 6.83146 13.0118 6.75245 12.875C6.67345 12.7382 6.53652 12.6446 6.3803 12.6209L6.0374 12.5686C5.4585 12.4805 5.01986 11.9999 4.98477 11.4154L4.94104 10.6867C4.90592 10.1017 5.35172 9.59894 5.93676 9.56383Z" fill="#E0E7FF" stroke="#111827"/>
</svg>
